<svg width="39" height="73" viewBox="0 0 39 73" fill="none" xmlns="http://www.w3.org/2000/svg">
<g opacity="0.5">
<path d="M0.328476 52.2677C-0.751657 61.6423 0.775167 65.9606 5.75547 72.67C0.661554 60.9513 0.513193 55.9363 4.49563 49.4282C4.12842 55.9265 4.90979 58.9059 7.49986 63.4154C4.92735 54.0238 6.26602 47.8943 12.5392 35.7566C5.8546 40.9739 3.00562 44.4764 0.328476 52.2677Z" fill="#EBE6D0"/>
<path d="M32.7936 54.8969C31.4366 43.6233 28.7059 38.3328 20.7766 30.4983C27.6237 32.8307 30.4918 35.0333 34.6349 39.8581C39.3773 46.2155 40.1554 51.017 37.1545 62.4689C38.4287 52.0852 37.1174 47.6189 32.1152 41.4356C33.663 47.1846 33.7219 50.0975 32.7936 54.8969Z" fill="#EBE6D0"/>
<path d="M8.17826 37.1237C11.2743 29.7159 11.7415 25.2944 10.2134 16.9318L14.1867 22.1901C18.1929 16.9556 19.2824 11.9588 19.5168 0C20.6234 11.477 19.9906 17.5294 15.6404 27.3433C12.9678 31.8352 11.3167 33.9292 8.17826 37.1237Z" fill="#EBE6D0"/>
<path d="M21.5519 2.94466C22.6338 13.3858 22.364 19.078 20.7766 29.0259L23.684 19.3506L25.0407 25.5554L27.0758 21.5591C28.1989 28.7839 30.1701 32.1152 34.0534 37.8599C30.2735 27.7601 29.2018 21.9093 30.8554 10.8321C28.9388 13.0247 27.9112 14.2465 26.2036 16.406C23.824 11.8772 22.9066 8.79911 21.5519 2.94466Z" fill="#EBE6D0"/>
<path d="M8.27517 48.4817C13.6053 34.2843 20.0014 29.0259 20.0014 21.0333C20.4932 25.3469 20.1887 27.6983 18.5477 31.7603C18.5959 33.0571 14.0507 40.3676 11.2794 49.4282C8.50814 58.4889 17.6764 67.7974 25.0407 62.4689C29.7516 59.0602 28.6997 55.1634 27.0758 49.4282C25.3066 53.0754 23.899 54.7544 20.7766 57.2105C24.072 51.113 25.5234 47.3726 27.0758 39.8581C30.9439 47.4618 31.9214 52.0574 30.6615 60.3655C30.1991 63.4154 25.2937 71.0925 17.9285 70.2512C8.52814 68.3582 5.75547 61.1017 8.27517 48.4817Z" fill="#EBE6D0"/>
</g>
</svg>
